<?xml version="1.0" encoding="utf-8"?>
<!-- Generator: Adobe Illustrator 21.1.0, SVG Export Plug-In . SVG Version: 6.00 Build 0)  -->
<svg version="1.1" id="Layer_1" xmlns="http://www.w3.org/2000/svg" xmlns:xlink="http://www.w3.org/1999/xlink" x="0px" y="0px"
	 viewBox="0 0 300 300" style="enable-background:new 0 0 300 300;" xml:space="preserve">
<style type="text/css">
	.st0{fill:#B72A38;}
	.st1{fill:none;stroke:#00FF00;stroke-width:4;stroke-miterlimit:10;}
</style>
<path class="st0" d="M271.2,38.9c-27.8-24.6-70.2-22.9-97.9,1.8L147,64.3c-0.1,0.1-0.1,0.4,0,0.5l-0.1,0c-0.1-0.1-0.3-0.1-0.4,0
	l-0.1,0c0.1-0.1,0.1-0.4,0-0.5l-22.6-20.2C92.1,15.6,41.5,20.6,16.2,56.5c-21.4,30.4-15,72.3,12.6,97.1l9,8c0.1,0.1,0.3,0.1,0.4,0
	l0.1,0c-0.1,0.1-0.1,0.4,0,0.5l108.2,96.9c0.1,0.1,0.3,0.1,0.4,0l0.1,0l108.2-96.8c0.1-0.1,0.1-0.4,0-0.5l0.1,0
	c0.1,0.1,0.3,0.1,0.4,0l16-14.3C303.4,118.8,304.1,68,271.2,38.9z"/>
<path class="st1" d="M140,11.8"/>
<path class="st1" d="M58.8,124.1c0-20.3,42.3-36.7,94.5-36.7s94.5,16.4,94.5,36.7"/>
<path class="st1" d="M74.1,136.3c0-17.2,35.9-31.1,80.2-31.1s80.2,13.9,80.2,31.1"/>
<path class="st1" d="M91.8,148.5c0-13.5,28.2-24.5,63-24.5s63,11,63,24.5"/>
</svg>
